<?xml version="1.0" encoding="UTF-8" standalone="no"?>
<svg xmlns:inkscape="http://www.inkscape.org/namespaces/inkscape"
    xmlns:sodipodi="http://sodipodi.sourceforge.net/DTD/sodipodi-0.dtd"
    xmlns:svg="http://www.w3.org/2000/svg" xmlns:xlink="http://www.w3.org/1999/xlink" id="vector"
    version="1.1" viewBox="0 0 24 24" xmlns="http://www.w3.org/2000/svg"
    inkscape:version="1.2.1 (9c6d41e410, 2022-07-14, custom)" sodipodi:docname="font_size_7.svg">
    <sodipodi:namedview bordercolor="#000000" borderopacity="0.25" id="namedview52995"
        pagecolor="#ffffff" showgrid="true" inkscape:current-layer="vector" inkscape:cx="18.20339"
        inkscape:cy="16.36017" inkscape:deskcolor="#d1d1d1" inkscape:pagecheckerboard="0"
        inkscape:pageopacity="0.0" inkscape:showpageshadow="2" inkscape:window-height="1117"
        inkscape:window-maximized="1" inkscape:window-width="1920" inkscape:window-x="0"
        inkscape:window-y="0" inkscape:zoom="39.333333">
        <inkscape:grid id="grid53404" type="xygrid" />
    </sodipodi:namedview>
    <defs id="defs5">
        <linearGradient id="linearGradient543">
            <stop style="stop-color:#000000;stop-opacity:1;" id="stop539" offset="0" />
            <stop style="stop-color:#000000;stop-opacity:0;" id="stop541" offset="1" />
        </linearGradient>
        <linearGradient gradientUnits="userSpaceOnUse" id="linearGradient545" x1="1.3471173"
            x2="4.4028583" y1="6.4886951" y2="12.960814" xlink:href="#linearGradient543" />
    </defs>
    <g style="font-size:27.728px;font-family:Ubuntu;-inkscape-font-specification:'Ubuntu, Normal';stroke-width:2.31067"
        aria-label="7" id="text169" transform="scale(1.070342,0.9342808)">
        <path
            d="m 12.476672,24.588776 q 0.166368,-2.21824 0.776384,-4.658304 0.637744,-2.467793 1.552768,-4.769217 0.915024,-2.329152 1.996416,-4.29784 1.10912,-1.9964157 2.162784,-3.2441758 H 9.6206879 V 5.3732712 H 21.848736 v 2.135056 q -0.915024,1.0536641 -2.024144,2.9114398 -1.10912,1.830048 -2.107328,4.131472 -0.97048,2.273696 -1.691408,4.880129 -0.6932,2.578704 -0.859568,5.157408 z"
            id="path53406" />
    </g>
    <path style="fill:#000000"
        d="M 2.3182981,21.301958 C 2.3899242,5.8059979 2.3899242,5.8059979 2.3899242,5.8059979"
        id="path383" />
    <path style="fill:#000000" d="M 4.1152964,19.755522 4.2596041,4.3675293 v 0" id="path387" />
    <path style="fill:#000000" d="M 4.2596041,20.762779 6.4526603,14.722528 Z" id="path391" />
    <path style="fill:url(#linearGradient545);fill-opacity:1"
        d="m 9.581082,19.935907 c 0,0 -6.0756704,0.826872 -5.896602,-0.287693 0.1790685,-1.114566 2.912488,-3.092215 2.912488,-3.092215"
        id="path393" />
    <path style="fill:#000000" d="M 3.0724885,6.8125967 3.9720421,12.78109" id="path621" />
    <path style="fill:#000000"
        d="M 12.852758,12.133943 C 13.93138,6.4169361 13.93138,6.4169361 13.93138,6.4169361"
        id="path623" />
    <path style="fill:#000000" d="M 4.8705423,16.98721 5.01485,5.8415487 v 0" id="path2032" />
    <path style="fill:#000000;stroke-width:1.13625"
        d="M 5,5 V 19 H 3 l 3,4 3,-4 H 7 V 5 H 9 L 6,1 3,5 Z" id="path2036" />
</svg>
