<?xml version="1.0" encoding="UTF-8" standalone="no"?>
<svg xmlns:inkscape="http://www.inkscape.org/namespaces/inkscape"
    xmlns:sodipodi="http://sodipodi.sourceforge.net/DTD/sodipodi-0.dtd"
    xmlns:svg="http://www.w3.org/2000/svg" xmlns:xlink="http://www.w3.org/1999/xlink" id="vector"
    version="1.1" viewBox="0 0 24 24" xmlns="http://www.w3.org/2000/svg"
    inkscape:version="1.2.1 (9c6d41e410, 2022-07-14, custom)" sodipodi:docname="font_size_5.svg">
    <sodipodi:namedview bordercolor="#000000" borderopacity="0.25" id="namedview53166"
        pagecolor="#ffffff" showgrid="false" inkscape:current-layer="vector" inkscape:cx="12"
        inkscape:cy="12.050847" inkscape:deskcolor="#d1d1d1" inkscape:pagecheckerboard="0"
        inkscape:pageopacity="0.0" inkscape:showpageshadow="2" inkscape:window-height="1117"
        inkscape:window-maximized="1" inkscape:window-width="1920" inkscape:window-x="0"
        inkscape:window-y="0" inkscape:zoom="9.8333333" />
    <defs id="defs5">
        <linearGradient id="linearGradient543">
            <stop style="stop-color:#000000;stop-opacity:1;" id="stop539" offset="0" />
            <stop style="stop-color:#000000;stop-opacity:0;" id="stop541" offset="1" />
        </linearGradient>
        <linearGradient gradientUnits="userSpaceOnUse" id="linearGradient545" x1="1.3471173"
            x2="4.4028583" y1="6.4886951" y2="12.960814" xlink:href="#linearGradient543" />
    </defs>
    <g style="font-size:22.2074px;font-family:Ubuntu;-inkscape-font-specification:'Ubuntu, Normal';stroke-width:1.85062"
        aria-label="5" id="text169" transform="scale(1.111402,0.89976443)">
        <path
            d="m 14.370337,16.028566 q 3.353317,0.133245 4.907835,1.465689 1.576725,1.332443 1.576725,3.619806 0,1.02154 -0.355318,1.887629 -0.333111,0.866088 -1.043748,1.487895 -0.688429,0.621808 -1.754385,0.977126 -1.065955,0.355318 -2.531643,0.355318 -0.577392,0 -1.176992,-0.08883 -0.5996,-0.08883 -1.11037,-0.222074 -0.51077,-0.133245 -0.910504,-0.266489 -0.399733,-0.133244 -0.577392,-0.222074 l 0.399733,-1.798799 q 0.377526,0.177659 1.221407,0.466355 0.866089,0.288696 2.109703,0.288696 0.999333,0 1.665555,-0.222074 0.688429,-0.222074 1.11037,-0.5996 0.421941,-0.377525 0.5996,-0.866088 0.199866,-0.51077 0.199866,-1.065955 0,-0.843882 -0.288696,-1.487896 -0.288696,-0.666222 -1.02154,-1.11037 -0.732844,-0.444148 -1.954251,-0.666222 -1.221407,-0.244281 -3.086829,-0.244281 0.133245,-1.088163 0.199867,-2.043081 0.08883,-0.954918 0.155452,-1.865422 0.06662,-0.910503 0.111037,-1.798799 0.04441,-0.910503 0.08883,-1.909836 h 7.417272 v 1.754384 h -5.618472 q -0.02221,0.333111 -0.06662,0.910503 -0.04441,0.555185 -0.08883,1.176993 -0.04441,0.599599 -0.08883,1.176992 -0.04441,0.577392 -0.08883,0.910503 z"
            id="path53168" />
    </g>
    <path style="fill:#000000"
        d="M 2.3182981,21.301958 C 2.3899242,5.8059979 2.3899242,5.8059979 2.3899242,5.8059979"
        id="path383" />
    <path style="fill:#000000" d="M 4.1152964,19.755522 4.2596041,4.3675293 v 0" id="path387" />
    <path style="fill:#000000" d="M 4.2596041,20.762779 6.4526603,14.722528 Z" id="path391" />
    <path style="fill:url(#linearGradient545);fill-opacity:1"
        d="m 9.581082,19.935907 c 0,0 -6.0756704,0.826872 -5.896602,-0.287693 0.1790685,-1.114566 2.912488,-3.092215 2.912488,-3.092215"
        id="path393" />
    <path style="fill:#000000" d="M 3.0724885,6.8125967 3.9720421,12.78109" id="path621" />
    <path style="fill:#000000"
        d="M 12.852758,12.133943 C 13.93138,6.4169361 13.93138,6.4169361 13.93138,6.4169361"
        id="path623" />
    <path style="fill:#000000" d="M 4.8705423,16.98721 5.01485,5.8415487 v 0" id="path2032" />
    <path style="fill:#000000;stroke-width:1.13625"
        d="M 5,5 V 19 H 3 l 3,4 3,-4 H 7 V 5 H 9 L 6,1 3,5 Z" id="path2036" />
</svg>
