<?xml version="1.0" encoding="UTF-8" standalone="no"?>
<svg xmlns:inkscape="http://www.inkscape.org/namespaces/inkscape"
    xmlns:sodipodi="http://sodipodi.sourceforge.net/DTD/sodipodi-0.dtd"
    xmlns:svg="http://www.w3.org/2000/svg" xmlns:xlink="http://www.w3.org/1999/xlink" id="vector"
    version="1.1" viewBox="0 0 24 24" xmlns="http://www.w3.org/2000/svg"
    inkscape:version="1.2.1 (9c6d41e410, 2022-07-14, custom)"
    sodipodi:docname="ic_action_sort_date.svg">
    <sodipodi:namedview bordercolor="#000000" borderopacity="0.25" id="namedview52995"
        pagecolor="#ffffff" showgrid="true" inkscape:current-layer="text53988"
        inkscape:cx="4.0628678" inkscape:cy="6.2201427" inkscape:deskcolor="#d1d1d1"
        inkscape:pagecheckerboard="0" inkscape:pageopacity="0.0" inkscape:showpageshadow="2"
        inkscape:window-height="1117" inkscape:window-maximized="1" inkscape:window-width="1920"
        inkscape:window-x="0" inkscape:window-y="0" inkscape:zoom="13.906433">
        <inkscape:grid id="grid53611" type="xygrid" />
    </sodipodi:namedview>
    <defs id="defs5">
        <linearGradient id="linearGradient543">
            <stop style="stop-color:#000000;stop-opacity:1;" id="stop539" offset="0" />
            <stop style="stop-color:#000000;stop-opacity:0;" id="stop541" offset="1" />
        </linearGradient>
        <linearGradient gradientUnits="userSpaceOnUse" id="linearGradient545" x1="1.3471173"
            x2="4.4028583" y1="6.4886951" y2="12.960814" xlink:href="#linearGradient543" />
    </defs>
    <path style="fill:#000000"
        d="M 2.3182981,21.301958 C 2.3899242,5.8059979 2.3899242,5.8059979 2.3899242,5.8059979"
        id="path383" />
    <path style="fill:#000000" d="M 4.1152964,19.755522 4.2596041,4.3675293 v 0" id="path387" />
    <path style="fill:#000000" d="M 4.2596041,20.762779 6.4526603,14.722528 Z" id="path391" />
    <path style="fill:url(#linearGradient545);fill-opacity:1"
        d="m 9.581082,19.935907 c 0,0 -6.0756704,0.826872 -5.896602,-0.287693 0.1790685,-1.114566 2.912488,-3.092215 2.912488,-3.092215"
        id="path393" />
    <path style="fill:#000000" d="M 3.0724885,6.8125967 3.9720421,12.78109" id="path621" />
    <path style="fill:#000000"
        d="M 12.852758,12.133943 C 13.93138,6.4169361 13.93138,6.4169361 13.93138,6.4169361"
        id="path623" />
    <path style="fill:#000000" d="M 4.8705423,16.98721 5.01485,5.8415487 v 0" id="path2032" />
    <path style="fill:#000000;stroke-width:1.13625"
        d="M 7.0339174,19.9954 6.9705858,5.9955428 8.9705654,5.9864955 5.9525013,2.0001074 2.9706268,6.0136376 l 1.9999795,-0.00905 0.063332,13.9998568 0.013571,2.999969 1.9999795,-0.009 z"
        id="path2036" sodipodi:nodetypes="ccccccccccc" />
    <g style="font-size:12px;font-family:Ubuntu;-inkscape-font-specification:'Ubuntu, Normal'"
        aria-label="1
2" id="text53988">
        <path
            d="m 12.164976,4.7947724 q 0.684,-0.264 1.332,-0.672 0.648,-0.42 1.188,-1.044 h 0.792 v 8.3159996 h -1.116 V 4.6267724 q -0.144,0.132 -0.36,0.276 -0.204,0.144 -0.456,0.276 -0.24,0.132 -0.516,0.252 -0.264,0.12 -0.516,0.204 z"
            id="path53992" />
        <path
            d="m 17.299728,16.464729 q 0,0.432 -0.18,0.84 -0.168,0.396 -0.456,0.792 -0.288,0.384 -0.648,0.768 -0.36,0.372 -0.72,0.732 -0.204,0.204 -0.48,0.48 -0.264,0.276 -0.504,0.576 -0.24,0.3 -0.408,0.576 -0.156,0.276 -0.156,0.48 h 3.828 v 0.948 h -5.04 q -0.012,-0.072 -0.012,-0.144 0,-0.072 0,-0.132 0,-0.564 0.18,-1.044 0.192,-0.492 0.492,-0.924 0.3,-0.432 0.672,-0.816 0.372,-0.384 0.732,-0.744 0.3,-0.288 0.564,-0.564 0.276,-0.288 0.48,-0.564 0.216,-0.288 0.336,-0.588 0.132,-0.3 0.132,-0.636 0,-0.36 -0.12,-0.612 -0.108,-0.252 -0.3,-0.42 -0.192,-0.168 -0.456,-0.24 -0.252,-0.084 -0.54,-0.084 -0.348,0 -0.636,0.096 -0.288,0.096 -0.516,0.228 -0.228,0.12 -0.384,0.264 -0.156,0.132 -0.24,0.204 l -0.552,-0.792 q 0.108,-0.12 0.324,-0.288 0.216,-0.18 0.516,-0.336 0.3,-0.156 0.672,-0.264 0.372,-0.108 0.804,-0.108 1.308,0 1.956,0.612 0.66,0.6 0.66,1.704 z"
            id="path53994" />
    </g>
</svg>
