<?xml version="1.0" encoding="UTF-8" standalone="no"?>
<svg xmlns:inkscape="http://www.inkscape.org/namespaces/inkscape"
    xmlns:sodipodi="http://sodipodi.sourceforge.net/DTD/sodipodi-0.dtd"
    xmlns:svg="http://www.w3.org/2000/svg" xmlns:xlink="http://www.w3.org/1999/xlink" id="vector"
    version="1.1" viewBox="0 0 24 24" xmlns="http://www.w3.org/2000/svg"
    inkscape:version="1.2.1 (9c6d41e410, 2022-07-14, custom)"
    sodipodi:docname="ic_action_sort_color.svg">
    <sodipodi:namedview bordercolor="#000000" borderopacity="0.25" id="namedview52995"
        pagecolor="#ffffff" showgrid="true" inkscape:current-layer="vector" inkscape:cx="9.4740325"
        inkscape:cy="10.336942" inkscape:deskcolor="#d1d1d1" inkscape:pagecheckerboard="0"
        inkscape:pageopacity="0.0" inkscape:showpageshadow="2" inkscape:window-height="1117"
        inkscape:window-maximized="1" inkscape:window-width="1920" inkscape:window-x="0"
        inkscape:window-y="0" inkscape:zoom="27.812867">
        <inkscape:grid id="grid53611" type="xygrid" />
    </sodipodi:namedview>
    <defs id="defs5">
        <linearGradient id="linearGradient543">
            <stop style="stop-color:#000000;stop-opacity:1;" id="stop539" offset="0" />
            <stop style="stop-color:#000000;stop-opacity:0;" id="stop541" offset="1" />
        </linearGradient>
        <linearGradient gradientUnits="userSpaceOnUse" id="linearGradient545" x1="1.3471173"
            x2="4.4028583" y1="6.4886951" y2="12.960814" xlink:href="#linearGradient543" />
    </defs>
    <path style="fill:#000000"
        d="M 2.3182981,21.301958 C 2.3899242,5.8059979 2.3899242,5.8059979 2.3899242,5.8059979"
        id="path383" />
    <path style="fill:#000000" d="M 4.1152964,19.755522 4.2596041,4.3675293 v 0" id="path387" />
    <path style="fill:#000000" d="M 4.2596041,20.762779 6.4526603,14.722528 Z" id="path391" />
    <path style="fill:url(#linearGradient545);fill-opacity:1"
        d="m 9.581082,19.935907 c 0,0 -6.0756704,0.826872 -5.896602,-0.287693 0.1790685,-1.114566 2.912488,-3.092215 2.912488,-3.092215"
        id="path393" />
    <path style="fill:#000000" d="M 3.0724885,6.8125967 3.9720421,12.78109" id="path621" />
    <path style="fill:#000000" d="M 4.8705423,16.98721 5.01485,5.8415487 v 0" id="path2032" />
    <path style="fill:#000000;stroke-width:1.13625"
        d="m 4.9518754,5.002927 -0.019964,13.999986 -1.999998,-0.0029 2.994293,4.004274 3.0057009,-3.995718 -1.9999979,-0.0028 0.019964,-13.999986 0.00428,-2.9999967 -1.9999977,-0.0029 z"
        id="path2036" sodipodi:nodetypes="ccccccccccc" />
    <g style="font-size:12px;font-family:Ubuntu;-inkscape-font-specification:'Ubuntu, Normal'"
        aria-label="1
2" id="text53988" />
    <g id="g54180" transform="matrix(1.7499998,0,0,1.7499998,-11.004726,-8.38628)">
        <path style="fill:#000000"
            d="M 13.78707,13.715929 C 14.865692,7.9989224 14.865692,7.9989224 14.865692,7.9989224"
            id="path623" />
        <circle style="fill:#008000" cx="14.934312" cy="13.081986" id="path54086" r="2" />
        <circle style="fill:#aa0000" cx="12.934312" cy="9.6819868" id="path54086-1" r="2" />
        <circle style="fill:#ffff00" cx="16.934313" cy="9.6819868" id="path54086-2" r="2" />
    </g>
</svg>
