<?xml version="1.0" encoding="UTF-8" standalone="no"?>
<svg xmlns:inkscape="http://www.inkscape.org/namespaces/inkscape"
    xmlns:sodipodi="http://sodipodi.sourceforge.net/DTD/sodipodi-0.dtd"
    xmlns:svg="http://www.w3.org/2000/svg" xmlns:xlink="http://www.w3.org/1999/xlink" id="vector"
    version="1.1" viewBox="0 0 24 24" xmlns="http://www.w3.org/2000/svg"
    inkscape:version="1.2.1 (9c6d41e410, 2022-07-14, custom)"
    sodipodi:docname="ic_action_sort_title.svg">
    <sodipodi:namedview bordercolor="#000000" borderopacity="0.25" id="namedview52995"
        pagecolor="#ffffff" showgrid="true" inkscape:current-layer="text53942"
        inkscape:cx="4.0628678" inkscape:cy="6.2201427" inkscape:deskcolor="#d1d1d1"
        inkscape:pagecheckerboard="0" inkscape:pageopacity="0.0" inkscape:showpageshadow="2"
        inkscape:window-height="1117" inkscape:window-maximized="1" inkscape:window-width="1920"
        inkscape:window-x="0" inkscape:window-y="0" inkscape:zoom="13.906433">
        <inkscape:grid id="grid53611" type="xygrid" />
    </sodipodi:namedview>
    <defs id="defs5">
        <linearGradient id="linearGradient543">
            <stop style="stop-color:#000000;stop-opacity:1;" id="stop539" offset="0" />
            <stop style="stop-color:#000000;stop-opacity:0;" id="stop541" offset="1" />
        </linearGradient>
        <linearGradient gradientUnits="userSpaceOnUse" id="linearGradient545" x1="1.3471173"
            x2="4.4028583" y1="6.4886951" y2="12.960814" xlink:href="#linearGradient543" />
    </defs>
    <path style="fill:#000000"
        d="M 2.3182981,21.301958 C 2.3899242,5.8059979 2.3899242,5.8059979 2.3899242,5.8059979"
        id="path383" />
    <path style="fill:#000000" d="M 4.1152964,19.755522 4.2596041,4.3675293 v 0" id="path387" />
    <path style="fill:#000000" d="M 4.2596041,20.762779 6.4526603,14.722528 Z" id="path391" />
    <path style="fill:url(#linearGradient545);fill-opacity:1"
        d="m 9.581082,19.935907 c 0,0 -6.0756704,0.826872 -5.896602,-0.287693 0.1790685,-1.114566 2.912488,-3.092215 2.912488,-3.092215"
        id="path393" />
    <path style="fill:#000000" d="M 3.0724885,6.8125967 3.9720421,12.78109" id="path621" />
    <path style="fill:#000000"
        d="M 12.852758,12.133943 C 13.93138,6.4169361 13.93138,6.4169361 13.93138,6.4169361"
        id="path623" />
    <path style="fill:#000000" d="M 4.8705423,16.98721 5.01485,5.8415487 v 0" id="path2032" />
    <path style="fill:#000000;stroke-width:1.13625" d="M 5,5 V 19 H 3 l 3,4 3,-4 H 7 V 5 2 H 5 Z"
        id="path2036" sodipodi:nodetypes="ccccccccccc" />
    <g style="font-size:12px;font-family:Ubuntu;-inkscape-font-specification:'Ubuntu, Normal'"
        aria-label="A
Z" id="text53942">
        <path
            d="m 17.613837,11.324816 q -0.204,-0.54 -0.384,-1.056 -0.18,-0.5280004 -0.372,-1.0680009 h -3.768 l -0.756,2.1240009 h -1.212 q 0.48,-1.32 0.9,-2.4360009 0.42,-1.128 0.816,-2.136 0.408,-1.008 0.804,-1.92 0.396,-0.924 0.828,-1.824 h 1.068 q 0.432,0.9 0.828,1.824 0.396,0.912 0.792,1.92 0.408,1.008 0.828,2.136 0.42,1.1160009 0.9,2.4360009 z m -1.092,-3.0840009 q -0.384,-1.044 -0.768,-2.016 -0.372,-0.984 -0.78,-1.884 -0.42,0.9 -0.804,1.884 -0.372,0.972 -0.744,2.016 z"
            id="path53946" />
        <path
            d="m 17.960576,13.733536 q -0.276,0.312 -0.648,0.756 -0.36,0.432 -0.768,0.972 -0.408,0.528 -0.84,1.128 -0.432,0.588 -0.852,1.2 -0.408,0.6 -0.78,1.2 -0.372,0.6 -0.672,1.14 h 4.68 v 0.996 h -6.036 v -0.78 q 0.252,-0.48 0.588,-1.056 0.348,-0.576 0.732,-1.176 0.396,-0.6 0.816,-1.212 0.42,-0.612 0.828,-1.176 0.42,-0.564 0.804,-1.056 0.396,-0.492 0.72,-0.864 h -4.272 v -0.996 h 5.7 z"
            id="path53948" />
    </g>
</svg>
