<?xml version="1.0" encoding="UTF-8"?>
<!DOCTYPE svg PUBLIC "-//W3C//DTD SVG 1.1//EN" "http://www.w3.org/Graphics/SVG/1.1/DTD/svg11.dtd">
<svg version="1.2" width="4.15mm" height="4.15mm" viewBox="350 358 415 415" preserveAspectRatio="xMidYMid" fill-rule="evenodd" stroke-width="28.222" stroke-linejoin="round" xmlns="http://www.w3.org/2000/svg" xmlns:ooo="http://xml.openoffice.org/svg/export" xmlns:xlink="http://www.w3.org/1999/xlink" xmlns:presentation="http://sun.com/xmlns/staroffice/presentation" xmlns:smil="http://www.w3.org/2001/SMIL20/" xmlns:anim="urn:oasis:names:tc:opendocument:xmlns:animation:1.0" xml:space="preserve">
 <defs class="EmbeddedBulletChars">
  <g id="bullet-char-template-57356" transform="scale(0.00048828125,-0.00048828125)">
   <path d="M 580,1141 L 1163,571 580,0 -4,571 580,1141 Z"/>
  </g>
  <g id="bullet-char-template-57354" transform="scale(0.00048828125,-0.00048828125)">
   <path d="M 8,1128 L 1137,1128 1137,0 8,0 8,1128 Z"/>
  </g>
  <g id="bullet-char-template-10146" transform="scale(0.00048828125,-0.00048828125)">
   <path d="M 174,0 L 602,739 174,1481 1456,739 174,0 Z M 1358,739 L 309,1346 659,739 1358,739 Z"/>
  </g>
  <g id="bullet-char-template-10132" transform="scale(0.00048828125,-0.00048828125)">
   <path d="M 2015,739 L 1276,0 717,0 1260,543 174,543 174,936 1260,936 717,1481 1274,1481 2015,739 Z"/>
  </g>
  <g id="bullet-char-template-10007" transform="scale(0.00048828125,-0.00048828125)">
   <path d="M 0,-2 C -7,14 -16,27 -25,37 L 356,567 C 262,823 215,952 215,954 215,979 228,992 255,992 264,992 276,990 289,987 310,991 331,999 354,1012 L 381,999 492,748 772,1049 836,1024 860,1049 C 881,1039 901,1025 922,1006 886,937 835,863 770,784 769,783 710,716 594,584 L 774,223 C 774,196 753,168 711,139 L 727,119 C 717,90 699,76 672,76 641,76 570,178 457,381 L 164,-76 C 142,-110 111,-127 72,-127 30,-127 9,-110 8,-76 1,-67 -2,-52 -2,-32 -2,-23 -1,-13 0,-2 Z"/>
  </g>
  <g id="bullet-char-template-10004" transform="scale(0.00048828125,-0.00048828125)">
   <path d="M 285,-33 C 182,-33 111,30 74,156 52,228 41,333 41,471 41,549 55,616 82,672 116,743 169,778 240,778 293,778 328,747 346,684 L 369,508 C 377,444 397,411 428,410 L 1163,1116 C 1174,1127 1196,1133 1229,1133 1271,1133 1292,1118 1292,1087 L 1292,965 C 1292,929 1282,901 1262,881 L 442,47 C 390,-6 338,-33 285,-33 Z"/>
  </g>
  <g id="bullet-char-template-9679" transform="scale(0.00048828125,-0.00048828125)">
   <path d="M 813,0 C 632,0 489,54 383,161 276,268 223,411 223,592 223,773 276,916 383,1023 489,1130 632,1184 813,1184 992,1184 1136,1130 1245,1023 1353,916 1407,772 1407,592 1407,412 1353,268 1245,161 1136,54 992,0 813,0 Z"/>
  </g>
  <g id="bullet-char-template-8226" transform="scale(0.00048828125,-0.00048828125)">
   <path d="M 346,457 C 273,457 209,483 155,535 101,586 74,649 74,723 74,796 101,859 155,911 209,963 273,989 346,989 419,989 480,963 531,910 582,859 608,796 608,723 608,648 583,586 532,535 482,483 420,457 346,457 Z"/>
  </g>
  <g id="bullet-char-template-8211" transform="scale(0.00048828125,-0.00048828125)">
   <path d="M -4,459 L 1135,459 1135,606 -4,606 -4,459 Z"/>
  </g>
  <g id="bullet-char-template-61548" transform="scale(0.00048828125,-0.00048828125)">
   <path d="M 173,740 C 173,903 231,1043 346,1159 462,1274 601,1332 765,1332 928,1332 1067,1274 1183,1159 1299,1043 1357,903 1357,740 1357,577 1299,437 1183,322 1067,206 928,148 765,148 601,148 462,206 346,322 231,437 173,577 173,740 Z"/>
  </g>
 </defs>
 <g class="Page">
  <g class="com.sun.star.drawing.CustomShape">
   <g id="id3">
    <rect class="BoundingBox" stroke="none" fill="none" x="350" y="358" width="415" height="415"/>
    <path fill="rgb(52,101,164)" stroke="none" d="M 557,765 L 357,765 357,365 757,365 757,765 557,765 Z"/>
    <path fill="none" stroke="rgb(52,101,164)" stroke-width="14" stroke-linejoin="round" d="M 557,765 L 357,765 357,365 757,365 757,765 557,765 Z"/>
   </g>
  </g>
  <g class="Group">
   <g class="com.sun.star.drawing.PolyPolygonShape">
    <g id="id4">
     <rect class="BoundingBox" stroke="none" fill="none" x="512" y="518" width="92" height="93"/>
    </g>
   </g>
   <g class="com.sun.star.drawing.PolyPolygonShape">
    <g id="id5">
     <rect class="BoundingBox" stroke="none" fill="none" x="512" y="519" width="92" height="93"/>
    </g>
   </g>
   <g class="com.sun.star.drawing.CustomShape">
    <g id="id6">
     <rect class="BoundingBox" stroke="none" fill="none" x="425" y="434" width="266" height="266"/>
     <path fill="none" stroke="rgb(255,255,255)" stroke-width="40" stroke-linejoin="round" d="M 670,567 C 670,586 665,606 655,623 645,640 631,654 614,664 597,674 577,679 558,679 538,679 518,674 501,664 484,654 470,640 460,623 450,606 445,586 445,567 445,547 450,527 460,510 470,493 484,479 501,469 518,459 538,454 557,454 577,454 597,459 614,469 631,479 645,493 655,510 665,527 670,547 670,566 L 670,567 Z"/>
    </g>
   </g>
   <g class="com.sun.star.drawing.CustomShape">
    <g id="id7">
     <rect class="BoundingBox" stroke="none" fill="none" x="490" y="498" width="136" height="136"/>
     <path fill="rgb(255,255,255)" stroke="none" d="M 620,566 C 620,576 617,587 612,597 606,606 598,614 589,620 579,625 568,628 558,628 547,628 536,625 526,620 517,614 509,606 503,597 498,587 495,576 495,566 495,555 498,544 503,534 509,525 517,517 526,511 536,506 547,503 558,503 568,503 579,506 589,511 598,517 606,525 612,534 617,544 620,555 620,565 L 620,566 Z"/>
     <path fill="none" stroke="rgb(255,255,255)" stroke-width="10" stroke-linejoin="round" d="M 620,566 C 620,576 617,587 612,597 606,606 598,614 589,620 579,625 568,628 558,628 547,628 536,625 526,620 517,614 509,606 503,597 498,587 495,576 495,566 495,555 498,544 503,534 509,525 517,517 526,511 536,506 547,503 558,503 568,503 579,506 589,511 598,517 606,525 612,534 617,544 620,555 620,565 L 620,566 Z"/>
    </g>
   </g>
   <g class="com.sun.star.drawing.CustomShape">
    <g id="id8">
     <rect class="BoundingBox" stroke="none" fill="none" x="551" y="438" width="136" height="132"/>
     <path fill="rgb(246,209,38)" stroke="none" d="M 630,443 L 634,446 638,449 642,452 646,455 650,458 653,461 657,465 660,468 664,472 667,476 670,480 673,484 676,488 678,492 681,496 557,564 630,443 Z"/>
     <path fill="none" stroke="rgb(246,209,38)" stroke-width="10" stroke-linejoin="round" d="M 630,443 L 634,446 638,449 642,452 646,455 650,458 653,461 657,465 660,468 664,472 667,476 670,480 673,484 676,488 678,492 681,496 557,564 630,443 Z"/>
    </g>
   </g>
   <g class="com.sun.star.drawing.LineShape">
    <g id="id9">
     <rect class="BoundingBox" stroke="none" fill="none" x="400" y="549" width="99" height="31"/>
     <path fill="none" stroke="rgb(2,66,101)" stroke-width="30" stroke-linejoin="round" d="M 483,564 L 415,564"/>
    </g>
   </g>
   <g class="com.sun.star.drawing.LineShape">
    <g id="id10">
     <rect class="BoundingBox" stroke="none" fill="none" x="616" y="549" width="99" height="31"/>
     <path fill="none" stroke="rgb(2,66,101)" stroke-width="30" stroke-linejoin="round" d="M 631,564 L 699,564"/>
    </g>
   </g>
   <g class="com.sun.star.drawing.LineShape">
    <g id="id11">
     <rect class="BoundingBox" stroke="none" fill="none" x="542" y="408" width="31" height="100"/>
     <path fill="none" stroke="rgb(2,66,101)" stroke-width="30" stroke-linejoin="round" d="M 557,492 L 557,423"/>
    </g>
   </g>
   <g class="com.sun.star.drawing.LineShape">
    <g id="id12">
     <rect class="BoundingBox" stroke="none" fill="none" x="542" y="623" width="31" height="100"/>
     <path fill="none" stroke="rgb(2,66,101)" stroke-width="30" stroke-linejoin="round" d="M 557,707 L 557,638"/>
    </g>
   </g>
  </g>
 </g>
</svg>